PathFileType	4	(X/Y/Z)	./resultDataOpenSim/trcMotMarkerGrf/sub06/qtm-15-08.trc
DataRate	CameraRate	NumFrames	NumMarkers	Units	OrigDataRate	OrigDataStartFrame	OrigNumFrames
250.000000	250.000000	5	24	m	250.000000	122	487
Frame#	Time	L.Toe.Tip			R.Toe.Tip			L.Ankle.Lat			R.Ankle.Lat			L.Ankle.Med			R.Ankle.Med			L.Heel			R.Heel			L.Knee.Lat			R.Knee.Lat			L.Knee.Med			R.Knee.Med			L.Thigh.Upper			R.Thigh.Upper			L.ASIS			R.ASIS			V.Sacral			L.Acromium			R.Acromium			C7			L.Elbow			R.Elbow			L.Wrist.Lat			R.Wrist.Lat
		X1	Y1	Z1	X2	Y2	Z2	X3	Y3	Z3	X4	Y4	Z4	X5	Y5	Z5	X6	Y6	Z6	X7	Y7	Z7	X8	Y8	Z8	X9	Y9	Z9	X10	Y10	Z10	X11	Y11	Z11	X12	Y12	Z12	X13	Y13	Z13	X14	Y14	Z14	X15	Y15	Z15	X16	Y16	Z16	X17	Y17	Z17	X18	Y18	Z18	X19	Y19	Z19	X20	Y20	Z20	X21	Y21	Z21	X22	Y22	Z22	X23	Y23	Z23	X24	Y24	Z24

122	0.484	-0.21955683	0.10919187	-0.10985625	-0.80255383	0.03525914	0.067357543	-0.34782246	0.097003523	-0.12478957	-0.93774888	0.063795155	0.082540171	-0.3453575	0.11505792	-0.039679981	-0.91263918	0.082562526	-0.0030396284	-0.39982334	0.042860875	-0.07089651	-0.99091869	0.043954619	0.018109106	-0.43644257	0.45950252	-0.13006724	-0.79189103	0.42569083	0.12024353	-0.44835745	0.45015854	-0.0059226012	-0.82326911	0.4275174	-0.011512483	-0.63924714	0.79743341	-0.17052791	-0.70060979	0.77896213	0.17819583	-0.57862259	0.83896507	-0.11519153	-0.5845788	0.82613031	0.13146374	-0.76421462	0.91296406	0.0064827865	-0.66678653	1.3196603	-0.17502577	-0.62834572	1.3112355	0.18035603	-0.720231	1.3461443	0.0089710432	-0.7715534	1.0251291	-0.22594305	-0.63204105	1.0004159	0.29266062	-0.67139737	0.80793111	-0.28691092	-0.39433571	0.92846942	0.25421707
123	0.488	-0.20318457	0.11383272	-0.10935288	-0.80243372	0.035187024	0.067356141	-0.3310131	0.098650723	-0.12507142	-0.93737687	0.064109434	0.082384853	-0.32952189	0.11630621	-0.039950614	-0.91207351	0.082667745	-0.0032710453	-0.38193706	0.042641671	-0.072471177	-0.99073803	0.044528492	0.017939858	-0.42865792	0.4577858	-0.12932918	-0.78824625	0.42476339	0.12028423	-0.44103072	0.44793297	-0.0049246237	-0.81926184	0.42684196	-0.011599765	-0.63200675	0.79483945	-0.17050221	-0.69236106	0.77644854	0.17837011	-0.57149831	0.83614155	-0.11505962	-0.5784208	0.82376849	0.13215398	-0.75787637	0.91099985	0.0054227125	-0.66043748	1.3172914	-0.17525045	-0.62168371	1.3091223	0.180303	-0.71372589	1.3440591	0.0088444201	-0.76583464	1.0231057	-0.22559818	-0.623382	0.99832909	0.29314192	-0.66812483	0.80534294	-0.28775242	-0.38540422	0.92906982	0.2527592
124	0.492	-0.18738064	0.11842319	-0.10884525	-0.80231975	0.035117317	0.067346783	-0.31466726	0.10044772	-0.12532645	-0.93701766	0.064467665	0.082235386	-0.31415187	0.11757488	-0.040184779	-0.91142876	0.082824142	-0.0034552502	-0.3647167	0.042732495	-0.073705629	-0.99052041	0.045181746	0.01775312	-0.42079193	0.45611148	-0.12855676	-0.78453652	0.42383077	0.12030541	-0.43365119	0.44574787	-0.0038911577	-0.81518546	0.4261594	-0.011730161	-0.62479223	0.79223002	-0.17047778	-0.6839732	0.77408793	0.17875421	-0.56429404	0.83330451	-0.11492468	-0.57236574	0.82125757	0.13303241	-0.75121205	0.90896586	0.0045924021	-0.65430735	1.3149288	-0.17553003	-0.61500916	1.3070258	0.18021313	-0.70720426	1.3419567	0.0087004629	-0.76009883	1.0211095	-0.22525449	-0.61470188	0.99632026	0.29356313	-0.66475222	0.80279366	-0.28853607	-0.37655787	0.92958516	0.25130455
125	0.496	-0.17212219	0.1229413	-0.10831214	-0.80221432	0.035052954	0.067334341	-0.29891994	0.10232131	-0.12557498	-0.93665538	0.064890476	0.082111937	-0.29927761	0.11885192	-0.040369322	-0.91079798	0.083045703	-0.0035689492	-0.34799694	0.043012142	-0.074666173	-0.99023248	0.045905255	0.01752574	-0.41283658	0.45448383	-0.12776615	-0.78075178	0.42290728	0.1203185	-0.42619366	0.44364653	-0.0028411139	-0.81102461	0.42547473	-0.011911104	-0.6175833	0.7896218	-0.17046682	-0.67642709	0.77225659	0.17930051	-0.55702846	0.83046595	-0.11479366	-0.5662699	0.81881186	0.1337924	-0.74418775	0.90690935	0.004458594	-0.64821796	1.3125722	-0.17581794	-0.60833263	1.3049566	0.18009067	-0.70071314	1.3398446	0.0085493599	-0.7543851	1.0191671	-0.22491635	-0.60601362	0.99438209	0.29392466	-0.66131287	0.80026572	-0.28926981	-0.36777757	0.9300173	0.24985929
126	0.5	-0.15739268	0.1273255	-0.10774103	-0.80211668	0.034997726	0.067326113	-0.28378495	0.10419962	-0.12577956	-0.9362802	0.065387465	0.082024627	-0.28494043	0.12011595	-0.040501538	-0.91025152	0.083334881	-0.0036134379	-0.33172088	0.043394482	-0.07541716	-0.98987111	0.046700817	0.017255016	-0.40477948	0.45292127	-0.12696977	-0.77690852	0.42199152	0.12030235	-0.41863851	0.44166808	-0.0018006042	-0.80675891	0.42478234	-0.012144301	-0.61032973	0.78703742	-0.17045925	-0.66982872	0.77075505	0.1797251	-0.54971519	0.82765077	-0.11466697	-0.56007034	0.81653511	0.13432981	-0.73674346	0.9048271	0.0051489767	-0.6420419	1.3102336	-0.17608332	-0.60164939	1.302924	0.17993798	-0.69430656	1.3377399	0.0084017622	-0.7486709	1.0172902	-0.22459333	-0.59733967	0.9924848	0.29421979	-0.65778209	0.79777089	-0.28996093	-0.3590201	0.93036036	0.24843059
